# xmcd
#
# Track frame offsets: 
#        150
#        8533
#        16267
#        24426
#        36373
#        51912
#        65728
#        79166
#        95670
#        112590
#        125723
#        143542
#        155784
#        172468
#        186556
#        201741
#        218687
#        236909
#        249104
#        260430
#        276581
#        299637
#        315548
#        329564
#
# Disc length: 4777 seconds
#
# Revision: 0
# Processed by: cddbd v1.5.2PL0 Copyright (c) Steve Scherf et al.
# Submitted via: ExactAudioCopy v1.3
#
DISCID=7612a718
DTITLE=The Rolling Stones - Rolled Gold CD 1
DYEAR=1975
DGENRE=Rock
TTITLE0=Come On
TTITLE1=I Wanna Be Your Man
TTITLE2=Not Fade Away
TTITLE3=Carol
TTITLE4=It's All Over Now
TTITLE5=Little Red Rooster
TTITLE6=Time Is On My Side
TTITLE7=The Last Time
TTITLE8=(I Can't Get No) Satisfaction
TTITLE9=Get Off Of My Cloud
TTITLE10=19th Nervous Breakdown
TTITLE11=As Tears Go By
TTITLE12=Under My Thumb
TTITLE13=Lady Jane
TTITLE14=Out Of Time
TTITLE15=Paint It Black
TTITLE16=Brian's Blues
TTITLE17=Little Red Rooster
TTITLE18=You Gotta Move
TTITLE19=Love In Vain
TTITLE20=Schoolboy Blues
TTITLE21=Cocksucker Blues
TTITLE22=Ventilator Blues
TTITLE23=Summertime Blues
EXTD=
EXTT0=
EXTT1=
EXTT2=
EXTT3=
EXTT4=
EXTT5=
EXTT6=
EXTT7=
EXTT8=
EXTT9=
EXTT10=
EXTT11=
EXTT12=
EXTT13=
EXTT14=
EXTT15=
EXTT16=
EXTT17=
EXTT18=
EXTT19=
EXTT20=
EXTT21=
EXTT22=
EXTT23=
PLAYORDER=
